<svg width="20" height="20" viewBox="0 0 20 20" fill="none" xmlns="http://www.w3.org/2000/svg">
    <path fill-rule="evenodd" clip-rule="evenodd" d="M5 1.917a2.5 2.5 0 0 0-2.5 2.5V6.53a.839.839 0 0 0-.147.031l-.598.183a.833.833 0 1 0 .488 1.594L2.5 8.26v6.157a2.5 2.5 0 0 0 1.573 2.322v.079a1.25 1.25 0 0 0 2.496.099h6.674a1.25 1.25 0 0 0 2.496-.1v-.012a2.501 2.501 0 0 0 1.76-2.388V8.062l.32.097a.833.833 0 1 0 .487-1.594l-.598-.182a.835.835 0 0 0-.208-.036v-1.93a2.5 2.5 0 0 0-2.5-2.5H5zm-.833 2.5c0-.46.373-.834.833-.834h10c.46 0 .833.373.833.834v.166H4.167v-.166zm0 1v4.833h11.666V5.417H4.167zm11.666 6.5H4.167v2.5c0 .46.373.833.833.833h10c.46 0 .833-.373.833-.833v-2.5zm-9.375 2.708a1.042 1.042 0 1 0 0-2.083 1.042 1.042 0 0 0 0 2.083zm8.125-1.042a1.042 1.042 0 1 1-2.083 0 1.042 1.042 0 0 1 2.083 0z" fill="#000" fill-opacity=".88"/>
</svg>
