<svg width="20" height="20" viewBox="0 0 20 20" fill="none" xmlns="http://www.w3.org/2000/svg">
    <path fill-rule="evenodd" clip-rule="evenodd" d="M5.417 1.667a2.5 2.5 0 0 0-2.5 2.5v10a2.5 2.5 0 0 0 2.5 2.5h.833l-1.667 1.666h2.084l1.666-1.666h3.334l1.666 1.666h2.084l-1.667-1.666h.833a2.5 2.5 0 0 0 2.5-2.5v-10a2.5 2.5 0 0 0-2.5-2.5H5.417zm-.834 2.5c0-.46.373-.834.834-.834h9.166c.46 0 .834.373.834.834v.166H4.583v-.166zm0 1v4.416h5V5.167h-5zm5.834 0v4.416h5V5.167h-5zm-5.834 9v-3.75h10.834v3.75c0 .46-.373.833-.834.833H5.417a.833.833 0 0 1-.834-.833zm3.334-1.459a1.042 1.042 0 1 1-2.084 0 1.042 1.042 0 0 1 2.084 0zm5.208 1.042a1.042 1.042 0 1 0 0-2.083 1.042 1.042 0 0 0 0 2.083z" fill="#000" fill-opacity=".88"/>
</svg>
