<svg width="20" height="20" viewBox="0 0 20 20" fill="none" xmlns="http://www.w3.org/2000/svg">
    <path fill-rule="evenodd" clip-rule="evenodd" d="m10 19.44.548-.479c4.61-4.025 6.952-7.539 6.952-10.628 0-4.374-3.414-7.5-7.5-7.5s-7.5 3.126-7.5 7.5c0 3.09 2.343 6.603 6.952 10.628l.548.479zm0-2.22c-3.911-3.525-5.833-6.512-5.833-8.887C4.167 4.913 6.803 2.5 10 2.5s5.833 2.414 5.833 5.833c0 2.375-1.922 5.362-5.833 8.886zm0-13.053a4.167 4.167 0 1 1 0 8.333 4.167 4.167 0 0 1 0-8.333zM7.5 8.333a2.5 2.5 0 1 1 5 0 2.5 2.5 0 0 1-5 0z" fill="#1266C7"/>
</svg>
