<svg width="37" height="36" viewBox="0 0 37 36" fill="none" xmlns="http://www.w3.org/2000/svg">
    <g clip-path="url(#id0otz6hwa)">
        <path fill-rule="evenodd" clip-rule="evenodd" d="M18.001 31.5c7.456 0 13.5-6.044 13.5-13.5s-6.044-13.5-13.5-13.5-13.5 6.044-13.5 13.5 6.044 13.5 13.5 13.5zm6.75-17.55v2.7c-.742 0-1.35.608-1.35 1.35 0 .742.608 1.35 1.35 1.35v2.7c0 .742-.607 1.35-1.35 1.35h-10.8c-.742 0-1.35-.607-1.35-1.35v-2.7a1.35 1.35 0 0 0 .007-2.7v-2.7c0-.75.6-1.35 1.343-1.35h10.8c.743 0 1.35.6 1.35 1.35zm-7.425 6.413v1.35h1.35v-1.35h-1.35zm0-4.726h1.35v-1.35h-1.35v1.35zm0 3.038h1.35v-1.35h-1.35v1.35z" fill="#009924"/>
    </g>
    <defs>
        <clipPath id="id0otz6hwa">
            <path fill="#fff" transform="translate(.001)" d="M0 0h36v36H0z"/>
        </clipPath>
    </defs>
</svg>
