<svg width="20" height="20" viewBox="0 0 20 20" fill="none" xmlns="http://www.w3.org/2000/svg">
    <path d="M10.814 4.767c.853 0 1.55-.697 1.55-1.55 0-.853-.697-1.55-1.55-1.55-.853 0-1.55.697-1.55 1.55 0 .853.697 1.55 1.55 1.55zM7.946 7.403l-1.98 9.967a.807.807 0 0 0 1.579.334l1.253-5.572 1.628 1.55v3.876a.775.775 0 1 0 1.55 0V12.52l-1.428-1.36a.5.5 0 0 1-.145-.46l.411-2.056a5.678 5.678 0 0 0 3.49 1.885c.425.059.774-.294.774-.722s-.35-.767-.771-.848c-1.129-.216-2.054-.898-2.563-1.787l-.775-1.24c-.31-.466-.775-.776-1.318-.776-.232 0-.387.078-.62.078L5 6.938v2.868a.775.775 0 0 0 1.55 0v-1.86l1.396-.543z" fill="#000" fill-opacity=".88"/>
</svg>
